<svg width="136" height="56" viewBox="0 0 136 56" fill="none" xmlns="http://www.w3.org/2000/svg">
<path d="M78.2026 32.292H83.8426V34.5H75.4666V17.82H78.2026V32.292ZM91.8667 34.716C90.6187 34.716 89.4907 34.436 88.4827 33.876C87.4747 33.3 86.6827 32.5 86.1067 31.476C85.5307 30.436 85.2427 29.236 85.2427 27.876C85.2427 26.532 85.5387 25.34 86.1307 24.3C86.7227 23.26 87.5307 22.46 88.5547 21.9C89.5787 21.34 90.7227 21.06 91.9867 21.06C93.2507 21.06 94.3947 21.34 95.4187 21.9C96.4427 22.46 97.2507 23.26 97.8427 24.3C98.4347 25.34 98.7307 26.532 98.7307 27.876C98.7307 29.22 98.4267 30.412 97.8187 31.452C97.2107 32.492 96.3787 33.3 95.3227 33.876C94.2827 34.436 93.1307 34.716 91.8667 34.716ZM91.8667 32.34C92.5707 32.34 93.2267 32.172 93.8347 31.836C94.4587 31.5 94.9627 30.996 95.3467 30.324C95.7307 29.652 95.9227 28.836 95.9227 27.876C95.9227 26.916 95.7387 26.108 95.3707 25.452C95.0027 24.78 94.5147 24.276 93.9067 23.94C93.2987 23.604 92.6427 23.436 91.9387 23.436C91.2347 23.436 90.5787 23.604 89.9707 23.94C89.3787 24.276 88.9067 24.78 88.5547 25.452C88.2027 26.108 88.0267 26.916 88.0267 27.876C88.0267 29.3 88.3867 30.404 89.1067 31.188C89.8427 31.956 90.7627 32.34 91.8667 32.34ZM106.763 21.06C107.787 21.06 108.691 21.268 109.475 21.684C110.275 22.084 110.899 22.588 111.347 23.196V21.276H114.107V34.716C114.107 35.932 113.851 37.012 113.339 37.956C112.827 38.916 112.083 39.668 111.107 40.212C110.147 40.756 108.995 41.028 107.651 41.028C105.859 41.028 104.371 40.604 103.187 39.756C102.003 38.924 101.331 37.788 101.171 36.348H103.883C104.091 37.036 104.531 37.588 105.203 38.004C105.891 38.436 106.707 38.652 107.651 38.652C108.755 38.652 109.643 38.316 110.315 37.644C111.003 36.972 111.347 35.996 111.347 34.716V32.508C110.883 33.132 110.251 33.66 109.451 34.092C108.667 34.508 107.771 34.716 106.763 34.716C105.611 34.716 104.555 34.428 103.595 33.852C102.651 33.26 101.899 32.444 101.339 31.404C100.795 30.348 100.523 29.156 100.523 27.828C100.523 26.5 100.795 25.324 101.339 24.3C101.899 23.276 102.651 22.484 103.595 21.924C104.555 21.348 105.611 21.06 106.763 21.06ZM111.347 27.876C111.347 26.964 111.155 26.172 110.771 25.5C110.403 24.828 109.915 24.316 109.307 23.964C108.699 23.612 108.043 23.436 107.339 23.436C106.635 23.436 105.979 23.612 105.371 23.964C104.763 24.3 104.267 24.804 103.883 25.476C103.515 26.132 103.331 26.916 103.331 27.828C103.331 28.74 103.515 29.54 103.883 30.228C104.267 30.916 104.763 31.444 105.371 31.812C105.995 32.164 106.651 32.34 107.339 32.34C108.043 32.34 108.699 32.164 109.307 31.812C109.915 31.46 110.403 30.948 110.771 30.276C111.155 29.588 111.347 28.788 111.347 27.876ZM123.437 34.716C122.189 34.716 121.061 34.436 120.053 33.876C119.045 33.3 118.253 32.5 117.677 31.476C117.101 30.436 116.813 29.236 116.813 27.876C116.813 26.532 117.109 25.34 117.701 24.3C118.293 23.26 119.101 22.46 120.125 21.9C121.149 21.34 122.293 21.06 123.557 21.06C124.821 21.06 125.965 21.34 126.989 21.9C128.013 22.46 128.821 23.26 129.413 24.3C130.005 25.34 130.301 26.532 130.301 27.876C130.301 29.22 129.997 30.412 129.389 31.452C128.781 32.492 127.949 33.3 126.893 33.876C125.853 34.436 124.701 34.716 123.437 34.716ZM123.437 32.34C124.141 32.34 124.797 32.172 125.405 31.836C126.029 31.5 126.533 30.996 126.917 30.324C127.301 29.652 127.493 28.836 127.493 27.876C127.493 26.916 127.309 26.108 126.941 25.452C126.573 24.78 126.085 24.276 125.477 23.94C124.869 23.604 124.213 23.436 123.509 23.436C122.805 23.436 122.149 23.604 121.541 23.94C120.949 24.276 120.477 24.78 120.125 25.452C119.773 26.108 119.597 26.916 119.597 27.876C119.597 29.3 119.957 30.404 120.677 31.188C121.413 31.956 122.333 32.34 123.437 32.34Z" fill="#ECECEC"/>
<path d="M21.1386 18.6541C25.2228 19.2863 28.7928 20.9411 31.8486 23.6185C32.7034 24.3681 33.2628 25.0176 33.5269 25.5668C34.5035 27.6007 33.4929 30.0741 31.3474 30.8754C29.6384 31.5119 28.1622 30.9707 26.8445 29.7219C22.0521 25.1823 14.4351 25.276 9.64928 29.7397C9.14913 30.2071 8.75678 30.5156 8.47221 30.6653C4.35087 32.8382 0.567446 27.6928 4.00648 24.2518C7.96021 20.2949 11.9177 16.3418 15.879 12.3925C17.415 10.8599 19.3617 9.57987 21.719 8.55242C29.6351 5.10333 38.5569 6.86584 44.6427 12.9482C48.1664 16.471 51.6889 19.9961 55.2104 23.5232C56.8257 25.1387 57.7958 26.394 57.0326 28.5927C56.2468 30.8608 53.4691 31.801 51.4092 30.6427C51.0514 30.4413 50.5038 29.9712 49.7665 29.2324C46.3485 25.8032 42.9213 22.3827 39.485 18.9708C38.4922 17.9853 37.6827 17.2788 37.0565 16.8512C34.4911 15.1022 31.639 14.3984 28.5001 14.7398C25.6383 15.051 23.1543 16.2648 21.0481 18.3811C20.8993 18.5308 20.9295 18.6218 21.1386 18.6541Z" fill="url(#paint0_linear_1_103)"/>
<path d="M22.9382 37.6879C27.4039 40.6378 33.0613 40.494 37.4154 37.3826C38.1511 36.8576 39.0808 35.7542 40.0735 35.3309C42.4584 34.3148 45.1019 35.7267 45.5385 38.339C45.8198 40.032 44.9758 41.2356 43.6888 42.4019C35.8261 49.5279 23.7029 49.3906 16.0213 42.2065C15.3174 41.5473 14.8507 40.9448 14.6211 40.3987C13.2856 37.2324 16.487 34.0741 19.6932 35.2679C20.8977 35.717 21.8209 36.9496 22.9382 37.6879Z" fill="url(#paint1_linear_1_103)"/>
<defs>
<linearGradient id="paint0_linear_1_103" x1="53.1249" y1="8.23934" x2="24.6054" y2="44.6311" gradientUnits="userSpaceOnUse">
<stop stop-color="#6CE1ED"/>
<stop offset="1" stop-color="#0665F2"/>
</linearGradient>
<linearGradient id="paint1_linear_1_103" x1="43.2034" y1="35.7444" x2="28.7801" y2="56.0179" gradientUnits="userSpaceOnUse">
<stop stop-color="#6CE1ED"/>
<stop offset="1" stop-color="#0665F2"/>
</linearGradient>
</defs>
</svg>
