<svg width="56" height="42" viewBox="0 0 56 42" fill="none" xmlns="http://www.w3.org/2000/svg">
<path d="M19.1386 12.6541C23.2228 13.2863 26.7928 14.9411 29.8486 17.6185C30.7034 18.3681 31.2628 19.0176 31.5269 19.5668C32.5035 21.6007 31.4929 24.0741 29.3474 24.8754C27.6384 25.5119 26.1622 24.9707 24.8445 23.7219C20.0521 19.1823 12.4351 19.276 7.64928 23.7397C7.14913 24.2071 6.75678 24.5156 6.47221 24.6653C2.35087 26.8382 -1.43255 21.6928 2.00648 18.2518C5.96021 14.2949 9.91772 10.3418 13.879 6.39246C15.415 4.85989 17.3617 3.57987 19.719 2.55242C27.6351 -0.896668 36.5569 0.86584 42.6427 6.94819C46.1664 10.471 49.6889 13.9961 53.2104 17.5232C54.8257 19.1387 55.7958 20.394 55.0326 22.5927C54.2468 24.8608 51.4691 25.801 49.4092 24.6427C49.0514 24.4413 48.5038 23.9712 47.7665 23.2324C44.3485 19.8032 40.9213 16.3827 37.485 12.9708C36.4922 11.9853 35.6827 11.2788 35.0565 10.8512C32.4911 9.10218 29.639 8.39836 26.5001 8.73977C23.6383 9.05102 21.1543 10.2648 19.0481 12.3811C18.8993 12.5308 18.9295 12.6218 19.1386 12.6541Z" fill="url(#paint0_linear_1_106)"/>
<path d="M20.9382 31.6879C25.4039 34.6378 31.0613 34.494 35.4154 31.3826C36.1511 30.8576 37.0808 29.7542 38.0735 29.3309C40.4584 28.3148 43.1019 29.7267 43.5385 32.339C43.8198 34.032 42.9758 35.2356 41.6888 36.4019C33.8261 43.5279 21.7029 43.3906 14.0213 36.2065C13.3174 35.5473 12.8507 34.9448 12.6211 34.3987C11.2856 31.2324 14.487 28.0741 17.6932 29.2679C18.8977 29.717 19.8209 30.9496 20.9382 31.6879Z" fill="url(#paint1_linear_1_106)"/>
<defs>
<linearGradient id="paint0_linear_1_106" x1="51.1249" y1="2.23934" x2="22.6054" y2="38.6311" gradientUnits="userSpaceOnUse">
<stop stop-color="#6CE1ED"/>
<stop offset="1" stop-color="#0665F2"/>
</linearGradient>
<linearGradient id="paint1_linear_1_106" x1="41.2034" y1="29.7444" x2="26.7801" y2="50.0179" gradientUnits="userSpaceOnUse">
<stop stop-color="#6CE1ED"/>
<stop offset="1" stop-color="#0665F2"/>
</linearGradient>
</defs>
</svg>
